PathFileType	4	(X/Y/Z)	E:\Dropbox\SEL\BOX\OpenSim\_Main_\c_AddBio_Continous\SUB1\UpDown_TrcMot\15_10_trial1_D1.trc																																																																																																																												
DataRate	CameraRate	NumFrames	NumMarkers	Units	OrigDataRate	OrigDataStartFrame	OrigNumFrames																																																																																																																								
1000	1000	5	42	m	1000	8288	148																																																																																																																								
Frame#	Time	LSHO			CLAV			STRN			C7			T10			LELB			LWRA			LWRB			LFN2			LFN5			LASI			LPSI			LGTR			LKNE			LANK			LTOE			LMT5			LHEE			LTA_BOX			LTP_BOX			LBA_BOX			LBP_BOX			LHN_BOX			RSHO			RELB			RWRA			RWRB			RFN2			RFN5			RASI			RPSI			RGTR			RKNE			RANK			RTOE			RMT5			RHEE			RTA_BOX			RTP_BOX			RBA_BOX			RBP_BOX			RHN_BOX		
		X1	Y1	Z1	X2	Y2	Z2	X3	Y3	Z3	X4	Y4	Z4	X5	Y5	Z5	X6	Y6	Z6	X7	Y7	Z7	X8	Y8	Z8	X9	Y9	Z9	X10	Y10	Z10	X11	Y11	Z11	X12	Y12	Z12	X13	Y13	Z13	X14	Y14	Z14	X15	Y15	Z15	X16	Y16	Z16	X17	Y17	Z17	X18	Y18	Z18	X19	Y19	Z19	X20	Y20	Z20	X21	Y21	Z21	X22	Y22	Z22	X23	Y23	Z23	X24	Y24	Z24	X25	Y25	Z25	X26	Y26	Z26	X27	Y27	Z27	X28	Y28	Z28	X29	Y29	Z29	X30	Y30	Z30	X31	Y31	Z31	X32	Y32	Z32	X33	Y33	Z33	X34	Y34	Z34	X35	Y35	Z35	X36	Y36	Z36	X37	Y37	Z37	X38	Y38	Z38	X39	Y39	Z39	X40	Y40	Z40	X41	Y41	Z41	X42	Y42	Z42
																																																																																																																															
863	8.62	0.231124	1.375705	0.146148	0.40725	1.324867	0.103774	0.404982	1.112896	0.139082	0.39952	1.44404	0.208246	0.387023	1.208526	0.386623	0.080636	1.080224	0.143253	0.152397	1.084153	-0.085632	0.153767	1.006627	-0.071845	0.144428	1.009162	-0.170512	0.173808	0.969953	-0.108121	0.280648	0.932334	0.275587	0.355639	0.963958	0.476682	0.225396	0.890368	0.367714	0.223414	0.502483	0.291555	0.196717	0.078937	0.333662	0.213888	0.049427	0.177688	0.15791	0.035496	0.224901	0.248457	0.03081	0.386309	0.206122	1.16967	-0.254722	0.21225	1.083379	0.013059	0.18175	0.908047	-0.337552	0.187976	0.820885	-0.070867	0.29646	1.025134	-0.156039	0.572605	1.371319	0.149905	0.729443	1.074047	0.143168	0.651501	1.093239	-0.092823	0.658785	1.021726	-0.081567	0.658957	1.034435	-0.175784	0.633199	0.98107	-0.115809	0.526069	0.936898	0.266132	0.46787	0.968183	0.465559	0.587802	0.899809	0.347065	0.583765	0.492455	0.27705	0.606876	0.085614	0.331031	0.587255	0.047779	0.180793	0.637917	0.039378	0.212804	0.561167	0.051619	0.388673	0.588204	1.17509	-0.259997	0.593971	1.088374	0.007324	0.616318	0.912846	-0.345019	0.621278	0.825444	-0.078439	0.504577	1.030975	-0.153573
864	8.63	0.230323	1.376341	0.146996	0.4067	1.325961	0.103757	0.404717	1.1141	0.138267	0.398951	1.444891	0.208351	0.386742	1.208516	0.386105	0.081324	1.079757	0.151692	0.152294	1.084016	-0.076789	0.154435	1.006361	-0.063038	0.144569	1.008737	-0.161576	0.174077	0.969977	-0.099059	0.280452	0.932724	0.273815	0.355418	0.963835	0.475018	0.225252	0.890495	0.365999	0.223243	0.502356	0.290607	0.196694	0.078842	0.333593	0.213852	0.049406	0.177715	0.157854	0.035444	0.224925	0.248442	0.030755	0.386331	0.206115	1.16882	-0.246858	0.212663	1.084298	0.021554	0.181682	0.90675	-0.327908	0.188177	0.821214	-0.060694	0.296713	1.024975	-0.147376	0.572318	1.372757	0.150627	0.729686	1.075162	0.150831	0.651693	1.093314	-0.08475	0.658824	1.021869	-0.073243	0.659114	1.034145	-0.167484	0.633302	0.981068	-0.107214	0.525905	0.937232	0.26442	0.467585	0.968076	0.463834	0.587467	0.899892	0.345252	0.583681	0.492337	0.276111	0.606797	0.085642	0.330997	0.587259	0.04777	0.18079	0.637849	0.038973	0.212596	0.561123	0.051906	0.388865	0.588222	1.174195	-0.252562	0.594344	1.089275	0.015284	0.616241	0.911447	-0.335896	0.621575	0.825746	-0.068763	0.504749	1.030754	-0.145119
865	8.64	0.22957	1.376971	0.147889	0.406215	1.326979	0.103715	0.404476	1.115228	0.137552	0.398425	1.445695	0.208464	0.386482	1.208492	0.385673	0.081857	1.079613	0.159847	0.15215	1.083787	-0.068251	0.155104	1.006003	-0.054422	0.144737	1.00799	-0.152847	0.174406	0.969797	-0.090135	0.280258	0.93311	0.27216	0.355166	0.963653	0.473468	0.225089	0.890598	0.364376	0.223096	0.502236	0.289737	0.19668	0.078746	0.333521	0.213832	0.049404	0.177745	0.157781	0.035377	0.224951	0.248441	0.030704	0.386353	0.206096	1.167509	-0.23951	0.212995	1.085283	0.029684	0.181657	0.904767	-0.318275	0.188348	0.821458	-0.050362	0.296925	1.024524	-0.138893	0.572009	1.374212	0.151258	0.72992	1.076502	0.158254	0.651854	1.093261	-0.076905	0.658881	1.021928	-0.06504	0.659248	1.03362	-0.159346	0.633405	0.980891	-0.098699	0.52568	0.937565	0.262803	0.467294	0.967903	0.462258	0.58714	0.899914	0.343542	0.583578	0.492245	0.275175	0.606716	0.085687	0.330951	0.587258	0.04776	0.180779	0.63778	0.038666	0.212441	0.56106	0.052109	0.388957	0.588235	1.172862	-0.245543	0.594647	1.09027	0.023005	0.61622	0.909472	-0.326673	0.621849	0.826004	-0.058842	0.504902	1.030308	-0.136837
866	8.65	0.228868	1.377594	0.148824	0.405792	1.327878	0.103673	0.404251	1.116256	0.136948	0.397959	1.446447	0.208558	0.386246	1.208473	0.385316	0.082209	1.079786	0.167695	0.152016	1.083431	-0.060043	0.155756	1.005556	-0.046017	0.144919	1.006927	-0.144327	0.174799	0.969405	-0.081365	0.280051	0.933484	0.270637	0.354892	0.963425	0.472038	0.224914	0.890677	0.36287	0.222966	0.502126	0.288972	0.196675	0.078655	0.333457	0.213819	0.049412	0.177777	0.157708	0.035309	0.224979	0.248459	0.030652	0.386378	0.206075	1.165736	-0.232652	0.213249	1.08631	0.037436	0.181682	0.902121	-0.308657	0.1885	0.82161	-0.039894	0.297097	1.023779	-0.130594	0.571693	1.375628	0.151767	0.730143	1.078	0.16544	0.651984	1.093067	-0.069301	0.658965	1.02187	-0.056989	0.659359	1.032868	-0.151388	0.633526	0.980535	-0.090299	0.525388	0.937913	0.2613	0.467001	0.967676	0.460833	0.586824	0.899887	0.341956	0.58346	0.492182	0.274262	0.606632	0.08575	0.330896	0.587254	0.047751	0.18076	0.637715	0.038488	0.212353	0.560971	0.052234	0.388954	0.588236	1.171099	-0.238928	0.594885	1.091339	0.030475	0.616256	0.906938	-0.317357	0.622102	0.826219	-0.048699	0.505038	1.029639	-0.128727
867	8.66	0.228219	1.378207	0.149787	0.405419	1.328624	0.103663	0.404031	1.117168	0.136469	0.397558	1.447144	0.208611	0.386039	1.208476	0.385017	0.082365	1.080254	0.175216	0.151943	1.082907	-0.052181	0.156373	1.005012	-0.037834	0.145098	1.005576	-0.136029	0.175223	0.968802	-0.072767	0.279823	0.933836	0.269255	0.354612	0.963177	0.470729	0.224733	0.890737	0.361503	0.222845	0.502028	0.288332	0.196675	0.078565	0.333414	0.213806	0.049427	0.177811	0.15765	0.035252	0.22501	0.24849	0.030588	0.386411	0.206067	1.163504	-0.226241	0.213442	1.087357	0.044812	0.181754	0.898869	-0.299043	0.188653	0.82167	-0.029309	0.297233	1.022749	-0.122478	0.571383	1.376948	0.152143	0.730346	1.079579	0.172392	0.652086	1.092713	-0.061953	0.65908	1.021663	-0.049125	0.659449	1.031894	-0.14363	0.633679	0.979989	-0.082056	0.52504	0.938273	0.259937	0.466715	0.967418	0.459551	0.586523	0.89983	0.340508	0.583327	0.492142	0.273398	0.606546	0.085819	0.330837	0.587249	0.047744	0.180738	0.637657	0.038431	0.212325	0.560863	0.052295	0.388884	0.588222	1.168913	-0.232708	0.595073	1.092457	0.037672	0.616338	0.903861	-0.307966	0.622336	0.826391	-0.038369	0.505156	1.028746	-0.120794
